<svg width="128" height="128" viewBox="0 0 128 128" fill="none" xmlns="http://www.w3.org/2000/svg">
<g clip-path="url(#clip0_9321_8051)">
<path d="M89.6004 51.1996C89.6004 57.9892 86.9033 64.5006 82.1023 69.3015C77.3014 74.1025 70.7899 76.7996 64.0004 76.7996C57.2108 76.7996 50.6994 74.1025 45.8985 69.3015C41.0975 64.5006 38.4004 57.9892 38.4004 51.1996C38.4004 44.4101 41.0975 37.8986 45.8985 33.0977C50.6994 28.2967 57.2108 25.5996 64.0004 25.5996C70.7899 25.5996 77.3014 28.2967 82.1023 33.0977C86.9033 37.8986 89.6004 44.4101 89.6004 51.1996Z" fill="#A2A3A3"/>
<path fill-rule="evenodd" clip-rule="evenodd" d="M61.3888 127.949C27.2544 126.579 0 98.4704 0 64C0 28.6528 28.6528 0 64 0C99.3472 0 128 28.6528 128 64C128 99.3472 99.3472 128 64 128H63.1232C62.5429 128 61.9648 127.983 61.3888 127.949ZM22.9312 104.384C22.4527 103.01 22.2898 101.546 22.4547 100.1C22.6195 98.6541 23.1079 97.264 23.8835 96.0329C24.659 94.8017 25.702 93.761 26.9348 92.9881C28.1676 92.2151 29.5587 91.7298 31.0048 91.568C55.952 88.8064 72.2016 89.056 97.0272 91.6256C98.4752 91.7764 99.8697 92.2556 101.105 93.0268C102.339 93.798 103.382 94.8408 104.153 96.0759C104.924 97.3109 105.403 98.7055 105.553 100.154C105.703 101.602 105.521 103.065 105.021 104.432C115.661 93.6673 121.62 79.1359 121.6 64C121.6 32.1888 95.8112 6.4 64 6.4C32.1888 6.4 6.4 32.1888 6.4 64C6.4 79.7312 12.7072 93.9904 22.9312 104.384Z" fill="#A2A3A3"/>
</g>
<defs>
<clipPath id="clip0_9321_8051">
<rect width="128" height="128" fill="white"/>
</clipPath>
</defs>
</svg>
